HIERARCHY
ROOT Hips
{
	OFFSET 0.000000 0.000000 0.000000
	CHANNELS 6 Xposition Yposition Zposition Xrotation Yrotation Zrotation
	JOINT Chest
	{
		OFFSET 0.000000 0.009282 11.569106
		CHANNELS 3 Xrotation Yrotation Zrotation
		JOINT Chest2
		{
			OFFSET 0.000000 -0.016863 9.269641
			CHANNELS 3 Xrotation Yrotation Zrotation
			JOINT Chest3
			{
				OFFSET 0.000000 0.000000 8.374491
				CHANNELS 3 Xrotation Yrotation Zrotation
				JOINT Chest4
				{
					OFFSET 0.000000 0.000000 8.374493
					CHANNELS 3 Xrotation Yrotation Zrotation
					JOINT Neck
					{
						OFFSET 0.000000 -0.000001 12.152554
						CHANNELS 3 Xrotation Yrotation Zrotation
						JOINT Head
						{
							OFFSET 0.000000 -0.040100 7.802319
							CHANNELS 3 Xrotation Yrotation Zrotation
							End Site
							{
								OFFSET 0.000000 -0.020946 14.853096
							}
						}
					}
					JOINT RightCollar
					{
						OFFSET -2.894404 0.000000 6.791374
						CHANNELS 3 Xrotation Yrotation Zrotation
						JOINT RightShoulder
						{
							OFFSET -13.574684 0.000000 0.000000
							CHANNELS 3 Xrotation Yrotation Zrotation
							JOINT RightElbow
							{
								OFFSET -23.923903 0.000000 0.000000
								CHANNELS 3 Xrotation Yrotation Zrotation
								JOINT RightWrist
								{
									OFFSET -19.846718 -0.012765 0.000000
									CHANNELS 3 Xrotation Yrotation Zrotation
									End Site
									{
										OFFSET -14.973145 0.000000 0.000000
									}
								}
							}
						}
					}
					JOINT LeftCollar
					{
						OFFSET 2.894404 0.000000 6.791374
						CHANNELS 3 Xrotation Yrotation Zrotation
						JOINT LeftShoulder
						{
							OFFSET 13.574684 0.000000 0.000000
							CHANNELS 3 Xrotation Yrotation Zrotation
							JOINT LeftElbow
							{
								OFFSET 23.923903 0.000000 0.000000
								CHANNELS 3 Xrotation Yrotation Zrotation
								JOINT LeftWrist
								{
									OFFSET 19.846718 -0.012765 0.000000
									CHANNELS 3 Xrotation Yrotation Zrotation
									End Site
									{
										OFFSET 14.973145 0.000000 0.000000
									}
								}
							}
						}
					}
				}
			}
		}
	}
	JOINT RightHip
	{
		OFFSET -9.469263 -0.004642 0.045487
		CHANNELS 3 Xrotation Yrotation Zrotation
		JOINT RightKnee
		{
			OFFSET 0.000000 -0.002666 -40.478676
			CHANNELS 3 Xrotation Yrotation Zrotation
			JOINT RightAnkle
			{
				OFFSET 0.000000 -0.049110 -35.224068
				CHANNELS 3 Xrotation Yrotation Zrotation
				JOINT RightToe
				{
					OFFSET 0.000000 -12.539530 -6.151390
					CHANNELS 3 Xrotation Yrotation Zrotation
					End Site
					{
						OFFSET 0.000000 -5.044995 -1.291870
					}
				}
			}
		}
	}
	JOINT LeftHip
	{
		OFFSET 9.469263 -0.004642 0.045487
		CHANNELS 3 Xrotation Yrotation Zrotation
		JOINT LeftKnee
		{
			OFFSET 0.000000 -0.002666 -40.478676
			CHANNELS 3 Xrotation Yrotation Zrotation
			JOINT LeftAnkle
			{
				OFFSET 0.000000 -0.049110 -35.224068
				CHANNELS 3 Xrotation Yrotation Zrotation
				JOINT LeftToe
				{
					OFFSET 0.000000 -12.539530 -6.151390
					CHANNELS 3 Xrotation Yrotation Zrotation
					End Site
					{
						OFFSET 0.000000 -5.044995 -1.291870
					}
				}
			}
		}
	}
}
MOTION
Frames: 5
Frame Time: 0.016667
-12.307591 -4.682747 82.896461 2.685613 5.782421 -112.499124 1.827479 0.424129 -0.714462 0.809367 0.188019 -0.312539 0.809366 0.188019 -0.312530 0.606928 0.141427 -0.234152 18.046193 -0.870542 -0.557548 -2.679045 -1.402886 -1.308227 3.534333 -8.017687 4.066422 27.060687 -73.414855 66.058052 31.117061 -7.769717 83.984307 -56.866495 23.946454 79.729440 3.949781 10.245799 -5.573644 23.239584 70.026678 -61.309554 33.129286 14.796994 -80.521209 -41.692004 -34.790607 -88.280618 11.088222 -0.569240 -2.479825 1.009926 0.015469 0.350640 -6.131479 -0.379165 0.022243 0.004301 -0.015251 0.010510 10.769995 -0.382767 0.803440 0.323050 -0.493238 0.950244 -4.797369 0.907543 -0.513158 0.009167 0.005844 -0.008719 
-12.328520 -4.671689 82.895393 2.676761 5.761332 -112.491932 1.823135 0.427102 -0.714568 0.807326 0.189202 -0.312912 0.807326 0.189202 -0.312910 0.605397 0.142316 -0.234431 18.013550 -0.877969 -0.546868 -2.739741 -1.419700 -1.291583 3.524275 -8.018362 4.064048 27.042975 -73.399016 66.043531 31.121634 -7.777636 83.980734 -56.870447 23.947820 79.724659 3.942906 10.252177 -5.568218 23.169704 70.010190 -61.256900 33.155528 14.811882 -80.518293 -41.707621 -34.789801 -88.272415 11.092640 -0.573228 -2.482883 0.991013 0.016711 0.350215 -6.137232 -0.377467 0.020626 0.003892 -0.014033 0.010357 10.773635 -0.383733 0.812495 0.301211 -0.495092 0.941043 -4.798966 0.911623 -0.509932 0.008971 0.004245 -0.008295 
-12.349492 -4.660470 82.893784 2.668729 5.740532 -112.484343 1.820743 0.430911 -0.712427 0.806270 0.190847 -0.312217 0.806270 0.190847 -0.312214 0.604604 0.143548 -0.233910 17.979226 -0.887010 -0.537512 -2.803582 -1.439017 -1.277897 3.521444 -8.025080 4.064618 26.977241 -73.378669 65.989490 31.118250 -7.760455 83.983104 -56.867312 23.945663 79.716231 3.934559 10.256396 -5.565359 23.110000 69.999952 -61.212688 33.180636 14.819504 -80.508471 -41.704998 -34.777541 -88.252908 11.098550 -0.578218 -2.490159 0.970603 0.017530 0.348984 -6.143557 -0.376154 0.024849 0.004582 -0.012582 0.010390 10.777209 -0.386885 0.816958 0.281578 -0.496183 0.933647 -4.803433 0.915105 -0.511219 0.010075 0.003885 -0.008225 
-12.369121 -4.651156 82.892128 2.662400 5.718777 -112.479296 1.824922 0.436147 -0.707939 0.808417 0.192779 -0.310221 0.808417 0.192780 -0.310218 0.606214 0.144995 -0.232412 17.939582 -0.898129 -0.528271 -2.877341 -1.462043 -1.265218 3.505192 -8.035333 4.056270 26.919565 -73.360835 65.950305 31.126729 -7.740492 83.978685 -56.868575 23.943747 79.724966 3.914617 10.256024 -5.569091 23.090602 69.968157 -61.208310 33.172931 14.802601 -80.497673 -41.710599 -34.776485 -88.244801 11.098835 -0.581734 -2.483605 0.958162 0.015056 0.341201 -6.152011 -0.372891 0.024524 0.004925 -0.012145 0.009549 10.776722 -0.389902 0.808212 0.268275 -0.497939 0.931123 -4.811984 0.916612 -0.508638 0.012315 0.003759 -0.008168 
-12.386340 -4.644169 82.890945 2.656292 5.695686 -112.475519 1.826207 0.440530 -0.706375 0.809451 0.194248 -0.309595 0.809452 0.194248 -0.309599 0.606989 0.146097 -0.231943 17.899631 -0.907110 -0.518134 -2.951626 -1.481478 -1.250192 3.491827 -8.040336 4.045365 26.921775 -73.339996 65.967354 31.123980 -7.726991 83.969697 -56.860778 23.942523 79.715794 3.909711 10.257332 -5.575443 23.056294 69.931056 -61.191576 33.147553 14.780017 -80.493342 -41.706040 -34.769891 -88.228873 11.094937 -0.585028 -2.471906 0.946734 0.012608 0.336656 -6.159305 -0.368805 0.015728 0.005864 -0.012328 0.009192 10.770530 -0.392767 0.790802 0.260031 -0.498363 0.940297 -4.819157 0.914230 -0.506676 0.012723 0.005362 -0.008741 
